<?xml version="1.0" encoding="UTF-8" standalone="no"?>
<svg
   xmlns:dc="http://purl.org/dc/elements/1.1/"
   xmlns:cc="http://creativecommons.org/ns#"
   xmlns:rdf="http://www.w3.org/1999/02/22-rdf-syntax-ns#"
   xmlns:svg="http://www.w3.org/2000/svg"
   xmlns="http://www.w3.org/2000/svg"
   xmlns:sodipodi="http://sodipodi.sourceforge.net/DTD/sodipodi-0.dtd"
   xmlns:inkscape="http://www.inkscape.org/namespaces/inkscape"
   id="Layer_4"
   data-name="Layer 4"
   viewBox="0 0 100 99.999997"
   version="1.1"
   sodipodi:docname="Website_venndiagram-03.svg"
   width="100"
   height="100"
   inkscape:version="0.92.4 (5da689c313, 2019-01-14)">
  <metadata
     id="metadata39">
    <rdf:RDF>
      <cc:Work
         rdf:about="">
        <dc:format>image/svg+xml</dc:format>
        <dc:type
           rdf:resource="http://purl.org/dc/dcmitype/StillImage" />
        <dc:title>Website_venndiagram</dc:title>
      </cc:Work>
    </rdf:RDF>
  </metadata>
  <sodipodi:namedview
     pagecolor="#ffffff"
     bordercolor="#666666"
     borderopacity="1"
     objecttolerance="10"
     gridtolerance="10"
     guidetolerance="10"
     inkscape:pageopacity="0"
     inkscape:pageshadow="2"
     inkscape:window-width="1920"
     inkscape:window-height="1018"
     id="namedview37"
     showgrid="false"
     inkscape:zoom="3.1472961"
     inkscape:cx="119.50641"
     inkscape:cy="64.127068"
     inkscape:window-x="-8"
     inkscape:window-y="-8"
     inkscape:window-maximized="1"
     inkscape:current-layer="Layer_4" />
  <defs
     id="defs4">
    <style
       id="style2">.cls-1{fill:#8bfffd;}.cls-2{fill:#00b2e7;}</style>
  </defs>
  <title
     id="title6">Website_venndiagram</title>
  <path
     class="cls-1"
     d="M 31.59327,95.047237 A 30.366928,30.366928 0 0 1 5.1944972,49.67422 30.58006,30.58006 0 0 1 15.559383,38.898495 34.741718,34.741718 0 0 0 33.32636,63.674948 c -0.0088,0.349143 -0.01398,0.688468 -0.01398,1.009566 a 34.597293,34.597293 0 0 0 12.619581,26.763339 30.410396,30.410396 0 0 1 -14.338654,3.599384 z"
     id="path8"
     inkscape:connector-curvature="0"
     style="fill:#8bfffd;stroke-width:0.1402176" />
  <path
     class="cls-2"
     d="m 15.5075,39.013476 a 34.816033,34.816033 0 0 0 17.748748,24.702136 c -0.0098,0.33512 -0.01407,0.660424 -0.01407,0.967501 A 34.668803,34.668803 0 0 0 45.801469,91.435233 30.287005,30.287005 0 0 1 15.507447,39.013476 M 15.611212,38.78492 A 30.401983,30.401983 0 0 0 1.1659979,64.683113 c 0,16.805081 13.6221371,30.427229 30.4272191,30.427229 A 30.301026,30.301026 0 0 0 46.056662,91.464682 34.56224,34.56224 0 0 1 33.388003,64.683113 q 0,-0.525815 0.01539,-1.05023 A 34.667403,34.667403 0 0 1 15.608372,38.78492 Z"
     id="path10"
     inkscape:connector-curvature="0"
     style="fill:#00b2e7;stroke-width:0.1402176" />
  <path
     class="cls-1"
     d="M 49.801926,88.971612 A 30.20007,30.20007 0 0 1 37.674508,65.645004 34.852489,34.852489 0 0 0 61.932148,65.632403 30.201472,30.201472 0 0 1 49.801926,88.971627 Z"
     id="path12"
     inkscape:connector-curvature="0"
     style="fill:#8bfffd;stroke-width:0.1402176" />
  <path
     class="cls-2"
     d="M 61.857833,65.733344 A 29.949079,29.949079 0 0 1 58.381839,78.81705 30.582863,30.582863 0 0 1 49.801926,88.877665 30.602494,30.602494 0 0 1 41.224817,78.81705 29.951885,29.951885 0 0 1 37.748824,65.741755 34.89736,34.89736 0 0 0 61.857833,65.727746 m 0.140224,-0.203316 a 34.757143,34.757143 0 0 1 -24.397864,0.01264 30.38095,30.38095 0 0 0 12.198928,23.517305 30.390766,30.390766 0 0 0 12.198936,-23.529924 z"
     id="path14"
     inkscape:connector-curvature="0"
     style="fill:#00b2e7;stroke-width:0.1402176" />
  <path
     class="cls-1"
     d="M 68.016192,95.047237 A 30.427222,30.427222 0 0 1 53.67614,91.453456 34.598696,34.598696 0 0 0 66.295721,64.688723 c 0,-0.342133 0,-0.687067 -0.01539,-1.026395 A 34.740317,34.740317 0 0 0 84.01086,38.877464 30.336081,30.336081 0 0 1 98.373349,64.684514 30.358515,30.358515 0 0 1 68.016227,95.047237 Z"
     id="path16"
     inkscape:connector-curvature="0"
     style="fill:#8bfffd;stroke-width:0.1402176" />
  <path
     class="cls-2"
     d="m 84.062698,38.992442 a 30.263168,30.263168 0 0 1 14.240504,25.690671 30.298221,30.298221 0 0 1 -44.500864,26.75212 34.667403,34.667403 0 0 0 12.564893,-26.75212 c 0,-0.328108 0,-0.659022 -0.01398,-0.981525 A 34.807619,34.807619 0 0 0 84.062733,38.992442 M 83.958977,38.762485 A 34.667403,34.667403 0 0 1 66.203221,63.614656 c 0.01126,0.35615 0.0168,0.709499 0.0168,1.068457 a 34.56224,34.56224 0 0 1 -12.668668,26.781569 30.306635,30.306635 0 0 0 14.464852,3.64566 c 16.805082,0 30.427224,-13.622148 30.427224,-30.427229 A 30.407591,30.407591 0 0 0 83.958942,38.762485 Z"
     id="path18"
     inkscape:connector-curvature="0"
     style="fill:#00b2e7;stroke-width:0.1402176" />
  <path
     class="cls-1"
     d="m 65.806363,58.899137 a 34.661792,34.661792 0 0 0 -12.13163,-20.980762 30.437037,30.437037 0 0 1 26.24594,-1.166612 29.956091,29.956091 0 0 1 -4.627181,12.8215 30.669799,30.669799 0 0 1 -9.487129,9.325874 z"
     id="path20"
     inkscape:connector-curvature="0"
     style="fill:#8bfffd;stroke-width:0.1402176" />
  <path
     class="cls-2"
     d="m 68.016192,34.397512 a 30.0907,30.0907 0 0 1 11.832962,2.397721 29.890188,29.890188 0 0 1 -4.611757,12.740171 30.615114,30.615114 0 0 1 -9.374948,9.254363 34.733303,34.733303 0 0 0 -12.058713,-20.853163 30.347299,30.347299 0 0 1 14.211058,-3.533485 m 0,-0.140217 A 30.295418,30.295418 0 0 0 53.552748,37.90856 34.595892,34.595892 0 0 1 65.751675,59.014114 30.417406,30.417406 0 0 0 80.00059,36.708297 30.329069,30.329069 0 0 0 68.016192,34.257291 Z"
     id="path22"
     inkscape:connector-curvature="0"
     style="fill:#00b2e7;stroke-width:0.1402176" />
  <path
     class="cls-1"
     d="M 49.803333,35.139261 A 34.761348,34.761348 0 0 0 19.440606,32.165248 30.357113,30.357113 0 0 1 80.125389,32.152611 34.773968,34.773968 0 0 0 49.803333,35.139247 Z"
     id="path24"
     inkscape:connector-curvature="0"
     style="fill:#8bfffd;stroke-width:0.1402176" />
  <path
     class="cls-2"
     d="M 49.783697,2.8275169 A 30.287005,30.287005 0 0 1 80.052472,32.050268 34.849685,34.849685 0 0 0 49.803333,35.056534 34.846883,34.846883 0 0 0 19.516328,32.062888 30.287005,30.287005 0 0 1 49.785104,2.8275169 m 0,-0.1402149 c -16.521848,0 -29.967312,13.16643 -30.416008,29.585913 a 34.702458,34.702458 0 0 1 30.435635,2.954386 34.699653,34.699653 0 0 1 30.394973,-2.967006 C 79.745397,15.855132 66.301332,2.6929036 49.785104,2.6929036 Z"
     id="path26"
     inkscape:connector-curvature="0"
     style="fill:#00b2e7;stroke-width:0.1402176" />
  <path
     class="cls-1"
     d="M 33.789073,58.918767 A 30.338885,30.338885 0 0 1 19.645322,36.764384 30.427222,30.427222 0 0 1 45.924906,37.915571 34.660392,34.660392 0 0 0 33.789073,58.918767 Z"
     id="path28"
     inkscape:connector-curvature="0"
     style="fill:#8bfffd;stroke-width:0.1402176" />
  <path
     class="cls-2"
     d="M 31.59327,34.397512 A 30.357113,30.357113 0 0 1 45.805726,37.930995 34.737512,34.737512 0 0 0 33.747013,58.803787 30.608103,30.608103 0 0 1 24.352428,49.556438 30.299624,30.299624 0 0 1 19.725248,36.810654 30.089297,30.089297 0 0 1 31.59327,34.397512 m 0,-0.140221 A 30.31645,30.31645 0 0 0 19.575219,36.723722 30.407591,30.407591 0 0 0 33.836752,59.032343 34.595892,34.595892 0 0 1 46.049706,37.907156 30.299624,30.299624 0 0 0 31.587659,34.261501 Z"
     id="path30"
     inkscape:connector-curvature="0"
     style="fill:#00b2e7;stroke-width:0.1402176" />
  <path
     class="cls-1"
     d="M 49.783697,63.470231 A 30.146787,30.146787 0 0 1 37.875022,61.045869 30.473494,30.473494 0 0 1 49.801926,40.396021 30.467885,30.467885 0 0 1 61.720423,61.030444 30.129961,30.129961 0 0 1 49.783697,63.470231 Z"
     id="path32"
     inkscape:connector-curvature="0"
     style="fill:#8bfffd;stroke-width:0.1402176" />
  <path
     class="cls-2"
     d="M 49.801926,40.484357 A 30.254754,30.254754 0 0 1 61.650311,60.986978 30.373939,30.373939 0 0 1 37.95354,61.002393 30.251951,30.251951 0 0 1 49.804731,40.48435 m 0,-0.175271 A 30.39357,30.39357 0 0 0 37.802104,61.089329 30.502939,30.502939 0 0 0 61.804552,61.073914 30.389363,30.389363 0 0 0 49.804731,40.309088 Z"
     id="path34"
     inkscape:connector-curvature="0"
     style="fill:#00b2e7;stroke-width:0.1402176" />
</svg>
